<svg width="42" height="42" viewBox="0 0 42 42" fill="none" xmlns="http://www.w3.org/2000/svg">
<path d="M12.6395 20.9465C12.6395 15.3827 16.433 10.7078 21.5184 9.36626C15.6183 9.86008 10.9361 14.8642 10.9361 20.9465C10.9361 27.0288 15.6101 32.0165 21.5596 32.5268C16.4248 31.177 12.6395 26.5103 12.6395 20.9465Z" fill="#E2112E"/>
<path d="M40.922 5.34979C39.9839 3.50617 38.4863 2.00823 36.643 1.06996C34.5447 0 31.8045 0 26.3158 0H15.6759C10.1873 0 7.4471 0 5.34875 1.06996C3.50549 2.00823 2.00784 3.50617 1.06975 5.34979C0 7.44856 0 10.1893 0 15.679V26.321C0 31.8107 0 34.5514 1.06975 36.6502C2.00784 38.4938 3.50549 39.9918 5.34875 40.93C7.4471 42 10.1873 42 15.6759 42H26.3158C31.8045 42 34.5447 42 36.643 40.93C38.4863 39.9918 39.9839 38.4938 40.922 36.6502C41.4734 35.5638 41.7367 34.3045 41.8683 32.5844H38.0419V27.5473C35.9024 30.7901 32.2241 32.93 28.0521 32.93H17.7743C11.1665 32.93 5.80956 27.572 5.80956 20.963C5.80956 14.3539 11.1665 8.99589 17.7002 8.99589H28.0603C33.154 8.99589 37.5153 12.1893 39.2351 16.6749H34.8409C33.4173 14.4362 30.9158 12.9465 28.0603 12.9465C23.6332 12.9465 20.0372 16.5432 20.0372 20.9712C20.0372 25.3992 23.625 28.9959 28.0603 28.9959C31.8045 28.9959 34.9561 26.4198 35.8366 22.9465H28.0603V18.9959H42V15.6955C42 10.2058 42 7.46502 40.9303 5.36626L40.922 5.34979Z" fill="#E2112E"/>
<path d="M16.0709 20.9547C16.0709 15.3827 19.8809 10.6996 25.0321 9.36626C19.0827 9.8107 14.3429 14.8642 14.3429 20.9547C14.3429 27.0453 19.0333 32.0494 24.9992 32.535C19.8562 31.1852 16.0627 26.5103 16.0627 20.9547H16.0709Z" fill="#E2112E"/>
<path d="M9.24099 20.9547C9.24099 15.3909 13.0427 10.7078 18.1364 9.36626C12.2198 9.83539 7.5047 14.8477 7.5047 20.9547C7.5047 27.0617 12.2034 32.0494 18.1693 32.535C13.0263 31.1934 9.23276 26.5185 9.23276 20.9547H9.24099Z" fill="#E2112E"/>
</svg>
